<mxfile host="app.diagrams.net" agent="Mozilla/5.0 (Windows NT 10.0; Win64; x64) AppleWebKit/537.36 (KHTML, like Gecko) Chrome/132.0.0.0 Safari/537.36 OPR/117.0.0.0 (Edition std-2)" version="26.1.0">
  <diagram name="Sayfa -1" id="ky7PzvnKmY8COsivfulv">
    <mxGraphModel dx="1392" dy="753" grid="1" gridSize="10" guides="1" tooltips="1" connect="1" arrows="1" fold="1" page="1" pageScale="1" pageWidth="827" pageHeight="1169" math="0" shadow="0">
      <root>
        <mxCell id="0" />
        <mxCell id="1" parent="0" />
        <mxCell id="BGoYI7wzu1_h1t6LcvZX-1" value="" style="swimlane;startSize=0;fillColor=#b0e3e6;strokeColor=#0e8088;swimlaneFillColor=none;gradientDirection=east;" vertex="1" parent="1">
          <mxGeometry x="170" y="240" width="280" height="290" as="geometry" />
        </mxCell>
        <mxCell id="BGoYI7wzu1_h1t6LcvZX-2" style="edgeStyle=orthogonalEdgeStyle;rounded=0;orthogonalLoop=1;jettySize=auto;html=1;exitX=0.75;exitY=0;exitDx=0;exitDy=0;entryX=0.85;entryY=0.005;entryDx=0;entryDy=0;entryPerimeter=0;" edge="1" parent="1" source="BGoYI7wzu1_h1t6LcvZX-1" target="BGoYI7wzu1_h1t6LcvZX-1">
          <mxGeometry relative="1" as="geometry" />
        </mxCell>
        <mxCell id="BGoYI7wzu1_h1t6LcvZX-3" value="" style="shape=corner;whiteSpace=wrap;html=1;rotation=-180;dx=60;dy=60;" vertex="1" parent="1">
          <mxGeometry x="170" y="240" width="370" height="375" as="geometry" />
        </mxCell>
        <mxCell id="BGoYI7wzu1_h1t6LcvZX-4" value="QSPI" style="rounded=1;whiteSpace=wrap;html=1;fontSize=15;" vertex="1" parent="1">
          <mxGeometry x="10" y="290" width="120" height="60" as="geometry" />
        </mxCell>
        <mxCell id="BGoYI7wzu1_h1t6LcvZX-5" value="Harici Flash" style="rounded=1;whiteSpace=wrap;html=1;fontSize=15;" vertex="1" parent="1">
          <mxGeometry x="10" y="397.5" width="120" height="60" as="geometry" />
        </mxCell>
        <mxCell id="BGoYI7wzu1_h1t6LcvZX-6" value="GPIO&amp;nbsp;&lt;div&gt;32 Pin&amp;nbsp;&lt;/div&gt;&lt;div&gt;I/O&lt;/div&gt;" style="rounded=1;whiteSpace=wrap;html=1;fontSize=15;" vertex="1" parent="1">
          <mxGeometry x="580" y="200" width="120" height="60" as="geometry" />
        </mxCell>
        <mxCell id="BGoYI7wzu1_h1t6LcvZX-7" value="Timer" style="rounded=1;whiteSpace=wrap;html=1;fontSize=15;" vertex="1" parent="1">
          <mxGeometry x="580" y="290" width="120" height="60" as="geometry" />
        </mxCell>
        <mxCell id="BGoYI7wzu1_h1t6LcvZX-8" value="UART1" style="rounded=1;whiteSpace=wrap;html=1;fontSize=15;" vertex="1" parent="1">
          <mxGeometry x="580" y="380" width="120" height="60" as="geometry" />
        </mxCell>
        <mxCell id="BGoYI7wzu1_h1t6LcvZX-9" value="UART 2" style="rounded=1;whiteSpace=wrap;html=1;fontSize=15;" vertex="1" parent="1">
          <mxGeometry x="580" y="470" width="120" height="60" as="geometry" />
        </mxCell>
        <mxCell id="BGoYI7wzu1_h1t6LcvZX-10" value="LDPC" style="rounded=1;whiteSpace=wrap;html=1;fontSize=15;" vertex="1" parent="1">
          <mxGeometry x="580" y="570" width="120" height="60" as="geometry" />
        </mxCell>
        <mxCell id="BGoYI7wzu1_h1t6LcvZX-11" value="Buyruk Belleği" style="rounded=1;whiteSpace=wrap;html=1;fontSize=15;" vertex="1" parent="1">
          <mxGeometry x="140" y="650" width="120" height="60" as="geometry" />
        </mxCell>
        <mxCell id="BGoYI7wzu1_h1t6LcvZX-12" value="Veri Belleği" style="rounded=1;whiteSpace=wrap;html=1;fontSize=15;" vertex="1" parent="1">
          <mxGeometry x="295" y="650" width="120" height="60" as="geometry" />
        </mxCell>
        <mxCell id="BGoYI7wzu1_h1t6LcvZX-13" value="I2C Master" style="rounded=1;whiteSpace=wrap;html=1;fontSize=15;" vertex="1" parent="1">
          <mxGeometry x="450" y="650" width="120" height="60" as="geometry" />
        </mxCell>
        <mxCell id="BGoYI7wzu1_h1t6LcvZX-14" value="CV32E40P" style="text;html=1;align=center;verticalAlign=middle;resizable=0;points=[];autosize=1;strokeColor=none;fillColor=none;fontSize=25;" vertex="1" parent="1">
          <mxGeometry x="235" y="350" width="150" height="40" as="geometry" />
        </mxCell>
        <mxCell id="BGoYI7wzu1_h1t6LcvZX-15" value="AXI Interconnect" style="text;strokeColor=none;align=center;fillColor=none;html=1;verticalAlign=middle;whiteSpace=wrap;rounded=0;fontSize=25;" vertex="1" parent="1">
          <mxGeometry x="200" y="570" width="190" height="30" as="geometry" />
        </mxCell>
      </root>
    </mxGraphModel>
  </diagram>
</mxfile>
